<mxfile host="app.diagrams.net" modified="2024-09-20T09:33:01.847Z" agent="Mozilla/5.0 (X11; Linux x86_64) AppleWebKit/537.36 (KHTML, like Gecko) Chrome/128.0.0.0 Safari/537.36" version="24.6.4" etag="6DqwOARsVww56QbKbAqp" type="github">
  <diagram name="Page-1" id="jFwUz_cW1wkvrbOu4nMs">
    <mxGraphModel>
      <root>
        <mxCell id="0" />
        <mxCell id="1" parent="0" />
      </root>
    </mxGraphModel>
  </diagram>
</mxfile>
